<svg width="71" height="55" viewBox="0 0 71 55" fill="none" xmlns="http://www.w3.org/2000/svg"><path fill="white" d="M60.1 4.6A57.5 57.5 0 0 0 45.7 0c-1.9 3.4-2.5 6.8-2.7 8.6a53 53 0 0 0-15 0A31.4 31.4 0 0 0 25.3 0 57.2 57.2 0 0 0 10.9 4.6C1.8 18.2-.7 31.5.5 44.7a58.1 58.1 0 0 0 17.7 9C19.6 51.9 20.9 50 22 48a37.8 37.8 0 0 1-5.5-2.7c.5-.4 1-.8 1.4-1.2 10.7 5 22.4 5 33 0 .5.4 1 .8 1.4 1.2a36 36 0 0 1-5.6 2.7c1.1 2 2.4 3.9 3.8 5.7a57.9 57.9 0 0 0 17.7-9C69.6 29.4 65.8 16.2 60.1 4.6ZM23.9 36.7c-3.5 0-6.4-3.2-6.4-7.2s2.8-7.2 6.4-7.2c3.6 0 6.4 3.2 6.4 7.2s-2.8 7.2-6.4 7.2Zm23.2 0c-3.5 0-6.4-3.2-6.4-7.2s2.8-7.2 6.4-7.2c3.6 0 6.4 3.2 6.4 7.2s-2.8 7.2-6.4 7.2Z"/></svg>
